<?xml version="1.0" encoding="UTF-8" standalone="no"?>
<!-- Created with Inkscape (http://www.inkscape.org/) -->

<svg
   width="185.38177mm"
   height="213.59576mm"
   viewBox="0 0 185.38177 213.59576"
   version="1.1"
   id="svg5"
   xml:space="preserve"
   xmlns="http://www.w3.org/2000/svg"
   xmlns:svg="http://www.w3.org/2000/svg"><defs
     id="defs2" /><g
     id="layer1"
     transform="translate(-12.093432,-35.701835)"><g
       id="g1156"
       transform="translate(-10.882457,3.4885899)"><path
         style="fill:#ffffff;fill-opacity:1;stroke:#ffffff;stroke-width:1.32292"
         d="m 97.775115,104.00424 c 0,0 -8.720942,-9.867564 -0.889878,-18.242451 8.008883,-8.565054 14.571723,-6.562834 21.579493,1e-6 7.60329,7.120544 6.34036,11.457154 -1.89099,19.91098 -8.95319,9.19517 -18.798625,-1.66853 -18.798625,-1.66853 z"
         id="path1074" /><g
         id="g344"
         transform="translate(10.067794,-11.326271)"><path
           style="fill:#eacdd3;stroke-width:0.264583"
           d="m 128.75806,247.08114 c -0.15473,-12.0989 -0.82985,-16.92834 -3.47436,-24.85372 -2.04048,-6.11515 -1.61377,-5.75071 -7.1644,-6.11885 -4.89425,-0.3246 -7.70019,-0.85594 -13.3764,-2.53295 -7.524843,-2.22319 -7.903181,-2.10589 -15.845155,4.91297 -8.450403,7.46818 -15.658669,12.21449 -25.075393,16.51096 l -3.686458,1.68198 2.547445,-5.06615 c 5.17488,-10.2914 7.756546,-18.52761 9.110186,-29.06394 1.156259,-8.99996 -0.0063,-9.88695 -5.665277,-4.32255 -1.829456,1.79886 -3.9445,3.8328 -4.700103,4.51986 -1.708962,1.55394 -3.225085,3.50413 -5.12146,6.58772 -1.883812,3.06316 -1.759582,3.07225 -3.767968,-0.27551 -3.215058,-5.35915 -4.610592,-9.46812 -6.008283,-17.69061 -0.554845,-3.26411 -0.840769,-3.81904 -1.969143,-3.82179 -3.500975,-0.009 -11.181061,-0.99787 -11.359676,-1.46334 -0.334841,-0.87258 3.044404,-11.56695 6.076915,-19.23174 1.077942,-2.72454 1.959705,-5.04626 1.959478,-5.15938 -2.3e-4,-0.11312 0.527095,-1.33676 1.171834,-2.71921 4.960329,-10.63595 4.84345,-9.95224 2.799004,-16.37344 -0.726684,-2.28236 -1.482053,-5.03868 -1.678602,-6.12514 -0.196546,-1.08646 -0.612468,-2.86835 -0.924274,-3.95975 -0.311804,-1.09141 -0.895887,-3.71079 -1.297961,-5.82084 l -0.731044,-3.83646 -2.38125,-0.17042 c -1.309687,-0.0937 -6.199404,-0.18302 -10.866041,-0.19843 -9.431194,-0.0311 -10.156909,-0.13256 -12.307025,-1.71978 -3.748529,-2.76717 -1.985039,-6.28688 7.165774,-14.30198 20.514824,-17.968739 47.243664,-34.110216 60.939754,-36.801368 1.189855,-0.233796 2.937278,-0.61764 3.883163,-0.852992 4.521383,-1.124985 15.92391,-0.348901 22.34168,1.520634 8.08683,2.355742 18.23969,8.015716 25.95695,14.470364 1.91834,1.604481 4.1374,2.225022 4.80273,1.343038 1.2336,-1.635291 1.89262,-26.00626 1.01399,-37.498237 -0.43666,-5.711386 -0.4922,-5.507055 0.96567,-3.552529 0.62862,0.842759 1.86891,2.312813 2.7562,3.266788 0.8873,0.953975 2.77552,3.103718 4.19605,4.777208 1.42053,1.673489 2.85061,3.280833 3.17796,3.571875 0.32734,0.291041 0.70147,0.729358 0.83139,0.974037 1.17859,2.219605 10.06259,10.838979 12.34303,11.975369 5.71196,2.846385 13.27174,-1.87653 27.88795,-17.422789 l 4.45453,-4.737966 0.0805,1.379337 c 0.0961,1.647082 -1.13071,13.083102 -1.68743,15.729636 -0.3964,1.884461 -1.30932,7.030673 -2.23652,12.607584 -0.72393,4.354266 -1.97785,10.085126 -2.77878,12.7 -0.37887,1.236927 -0.96878,3.439583 -1.31091,4.894792 -0.79841,3.395956 -4.38213,16.032739 -5.55253,19.579169 -0.62342,1.88902 -5.34775,14.52485 -5.78701,15.47812 -3.0768,6.67712 -3.05793,7.49746 0.31756,13.80757 3.34694,6.25674 7.53363,15.20486 9.50915,20.32368 0.30889,0.80037 1.32812,3.41974 2.26498,5.82084 0.93685,2.40109 1.9376,5.08 2.22389,5.95312 2.27151,6.92763 3.15857,10.08883 2.90279,10.34461 -0.2491,0.2491 -6.43347,1.10537 -10.2488,1.41902 -4.23811,0.34842 -4.09786,0.23432 -4.31653,3.51166 -0.41947,6.287 -3.97424,15.90809 -8.30837,22.48688 -1.37871,2.09276 -0.96139,2.18842 -4.30843,-0.98753 -9.42302,-8.9413 -12.50332,-9.70229 -14.16641,-3.49981 -0.32139,1.19864 -1.00435,3.31043 -1.51769,4.69288 -0.51333,1.38245 -1.2881,3.5851 -1.72171,4.89479 -4.54649,13.73234 -12.04106,27.03461 -19.97509,35.45417 l -2.24393,2.38125 z M 102.7615,116.40038 c 5.87461,-2.87463 8.73378,-9.51278 6.53451,-15.17122 -3.99376,-10.27546 -17.464195,-10.898874 -22.468383,-1.03984 -4.886079,9.62634 6.245698,20.95177 15.933873,16.21106 z m -8.402231,-0.1146 c -11.496186,-3.91792 -10.281663,-20.284804 1.663668,-22.419552 4.416133,-0.789207 8.975813,1.135856 11.416523,4.819967 6.00783,9.068485 -2.90884,21.066005 -13.080191,17.599585 z m -0.06065,-11.0581 c 2.337397,-1.14522 2.670299,-5.29865 0.497459,-6.20652 -2.822758,-1.179425 -5.403488,0.580832 -5.403488,3.68559 0,2.55755 2.358157,3.76927 4.906029,2.52093 z"
           id="path358" /><path
           style="fill:#a89f9e;stroke-width:0.264583"
           d="m 128.74542,246.81599 c -0.16502,-11.94443 -0.89213,-17.13002 -3.48722,-24.87027 -1.72424,-5.1428 -1.96097,-5.44438 -4.43523,-5.65029 -0.91561,-0.0762 -3.15304,-0.26248 -4.97205,-0.41397 -3.38068,-0.28153 -7.54839,-1.18518 -12.30312,-2.66757 -5.982144,-1.86506 -6.9882,-1.51741 -14.258326,4.92708 -6.292488,5.57788 -11.31111,9.22178 -18.020842,13.08451 -2.791865,1.60725 -10.682671,5.39348 -10.863527,5.21262 -0.04795,-0.0479 1.024781,-2.30919 2.383856,-5.02497 5.78217,-11.55428 9.383641,-24.45995 9.401574,-33.69001 0.0064,-3.30454 -1.453195,-3.84564 -4.027956,-1.49323 -5.690616,5.19918 -9.654503,9.5111 -11.539638,12.55281 -2.329256,3.75832 -2.024544,3.74209 -4.115625,0.21931 -3.229996,-5.44147 -4.583417,-9.43402 -5.976882,-17.63166 -0.538459,-3.16771 -0.849773,-3.81578 -1.836851,-3.82382 -3.55644,-0.029 -10.982706,-0.95789 -11.367847,-1.42195 -0.531191,-0.64005 2.561995,-10.68581 5.793415,-18.81532 0.983339,-2.47385 1.87629,-4.79557 1.984332,-5.15937 0.108043,-0.3638 0.764712,-1.91162 1.459262,-3.43958 4.845984,-10.66086 4.680984,-9.65626 2.651419,-16.14306 -0.723757,-2.31325 -1.437939,-4.96968 -1.587066,-5.90318 -0.149128,-0.93351 -0.460161,-2.21882 -0.691185,-2.85625 -0.231023,-0.63744 -0.820528,-3.29014 -1.310013,-5.89491 -0.489481,-2.60476 -1.013335,-4.8593 -1.164119,-5.01008 -0.175358,-0.17536 -4.303704,-0.33059 -11.456564,-0.43077 -12.583178,-0.17624 -12.534072,-0.16832 -14.679784,-2.36737 -2.35339,-2.4119 -1.53102,-4.46241 3.994983,-9.96116 17.253191,-17.168099 51.393069,-38.367222 65.383632,-40.599898 1.018646,-0.16256 2.506927,-0.484034 3.307292,-0.714385 2.047581,-0.58931 11.733191,-0.566143 15.60034,0.03731 8.26261,1.289354 15.1942,4.120065 24.69822,10.086215 0.8454,0.530704 3.20504,2.232864 5.24362,3.782576 4.97773,3.784016 6.67733,4.550394 7.56895,3.412974 1.22539,-1.563195 1.88535,-26.173982 1.00927,-37.636979 -0.42627,-5.577597 -0.48868,-5.355516 0.96062,-3.418627 0.62862,0.840097 1.97638,2.431195 2.99502,3.535774 1.01865,1.104579 3.08423,3.46486 4.59019,5.245069 1.50596,1.780208 2.8263,3.236743 2.93409,3.236743 0.10779,0 0.31917,0.26789 0.46972,0.595312 0.92935,2.021232 9.96249,10.784607 12.3355,11.967131 5.56847,2.774884 13.62849,-2.15691 27.0169,-16.531193 2.23642,-2.401094 4.39147,-4.663282 4.78901,-5.027084 l 0.7228,-0.661458 -0.16859,2.875283 c -0.22908,3.907102 -1.14593,11.783721 -1.64067,14.09505 -0.2224,1.038995 -0.98713,5.265713 -1.6994,9.392708 -1.64293,9.519401 -2.39424,13.09633 -3.54895,16.896334 -0.50852,1.67349 -1.15348,4.05474 -1.43323,5.291667 -0.56044,2.477997 -1.84087,7.082098 -3.60554,12.964588 -0.633,2.11005 -1.23671,4.25318 -1.3416,4.7625 -0.10489,0.50932 -0.28167,1.0451 -0.39285,1.19062 -0.11117,0.14552 -1.06313,2.64584 -2.11547,5.55625 -1.05233,2.91042 -2.36836,6.42276 -2.92451,7.80521 -3.64112,9.05093 -3.65488,9.18042 -1.41233,13.28589 4.01737,7.35466 10.22958,20.71171 11.47923,24.68182 0.18322,0.58208 0.8975,2.42755 1.58729,4.10104 1.18982,2.88664 1.65386,4.1868 3.25789,9.12813 1.00049,3.08207 1.874,6.46471 1.7114,6.62731 -0.23673,0.23673 -6.47831,1.10825 -10.25273,1.4316 -4.1792,0.35803 -4.24252,0.39349 -4.24252,2.37593 0,5.84918 -3.73039,16.40257 -8.26033,23.36873 -1.54286,2.37261 -1.10511,2.44538 -4.43967,-0.73808 -9.29171,-8.87066 -12.64784,-9.71543 -14.15555,-3.56309 -0.26268,1.07192 -0.86572,2.91144 -1.34007,4.08781 -0.47435,1.17638 -1.06143,2.91045 -1.30462,3.85349 -0.24318,0.94305 -0.78196,2.54807 -1.19727,3.56671 -0.41531,1.01865 -1.31206,3.28084 -1.99279,5.02709 -4.29774,11.02489 -10.70805,21.50816 -17.63451,28.83902 l -1.99937,2.1161 z m 11.71529,-103.64996 c 0.0215,-10.83381 13.85999,-18.21252 23.21365,-12.37754 2.15999,1.34744 2.22261,1.33609 1.1509,-0.20864 -3.17728,-4.57962 -10.50817,-6.40295 -15.75934,-3.91964 -6.09596,2.88282 -12.59863,14.83104 -9.66708,17.7626 0.86527,0.86527 1.05812,0.63702 1.06187,-1.25678 z m -38.99723,-25.88292 c 5.62949,-1.54565 10.1068,-8.75746 8.81928,-14.20559 -3.47531,-14.705765 -24.726628,-12.934006 -24.726628,2.06151 0,8.62596 7.597105,14.42579 15.907348,12.14408 z m -6.117765,-0.89368 c -8.604208,-2.1459 -11.632914,-12.64336 -5.480518,-18.995423 6.69381,-6.911038 18.049383,-2.954515 19.242893,6.704633 0.91732,7.4239 -6.54721,14.09025 -13.762375,12.29079 z m -1.083209,-10.93087 c 3.224122,-1.84365 2.950651,-6.379604 -0.418947,-6.948895 -1.953892,-0.330107 -3.908041,0.744096 -4.474165,2.459465 -1.140053,3.4544 1.871348,6.21736 4.893112,4.48943 z m -70.785715,8.84705 c 1.577483,-1.00123 6.487075,-4.49613 10.910205,-7.76644 C 49.289162,95.521009 57.45848,90.548239 68.187194,85.964552 89.76465,76.745895 108.4232,78.452857 112.85483,90.050931 c 0.92782,2.428211 0.56839,2.189472 6.17109,4.098824 11.38936,3.88139 22.6224,9.701065 31.19024,16.159225 3.67931,2.77334 -8.21782,-11.494652 -15.23115,-18.266422 C 117.74549,75.396821 98.427095,70.024748 78.823864,76.42523 64.708373,81.033957 37.693758,98.621907 23.176015,112.65494 c -4.592757,4.43941 -4.540951,4.72373 0.300776,1.65067 z M 171.01655,79.236378 c 2.61283,-1.230313 12.56862,-8.172188 14.34099,-9.999546 0.99907,-1.030076 2.40366,-3.539866 2.13269,-3.810826 -0.0588,-0.05885 -1.41092,0.938467 -3.00463,2.216248 -11.84402,9.496158 -17.82064,10.27784 -25.25998,3.303752 -2.25785,-2.11664 -4.19438,-4.123592 -11.02664,-11.427616 l -1.38631,-1.482043 0.15172,3.96875 c 0.19004,4.971209 0.0831,4.668605 1.47861,4.183566 2.83894,-0.98673 5.26544,0.18176 10.53501,5.073181 9.2307,8.568304 9.8734,8.99404 12.03854,7.974534 z"
           id="path356" /><path
           style="fill:#f09720;stroke-width:0.264583"
           d="m 128.7433,246.77184 c -0.16167,-11.88111 -0.89108,-17.09923 -3.46692,-24.80204 -1.9353,-5.78731 -1.60716,-5.50947 -6.91803,-5.85778 -4.75347,-0.31175 -7.84067,-0.86849 -12.6046,-2.27307 -8.81899,-2.60017 -8.642256,-2.65336 -17.684077,5.32194 -6.434325,5.67536 -11.485941,9.21483 -18.803966,13.17519 -2.398858,1.29822 -8.733692,4.22893 -8.862513,4.10011 -0.04185,-0.0419 1.021649,-2.27753 2.363322,-4.96817 2.22627,-4.46466 4.035682,-8.60599 5.432041,-12.43271 2.434998,-6.67312 4.892498,-22.54571 3.678616,-23.75959 -0.721129,-0.72113 -2.248688,-0.37296 -3.576272,0.81511 -5.187416,4.64231 -9.813121,9.66759 -11.682712,12.69187 -1.057028,1.70987 -2.028473,3.10886 -2.158769,3.10886 -0.257167,0 -3.183462,-4.8206 -4.453176,-7.33589 -0.849791,-1.68343 -2.964847,-9.71452 -3.468251,-13.16932 -0.452128,-3.10292 -0.499351,-3.26849 -1.010184,-3.54188 -0.256776,-0.13742 -2.823911,-0.44559 -5.704742,-0.68481 -7.132762,-0.59231 -6.895336,-0.4801 -6.331234,-2.99218 0.617416,-2.74948 3.385728,-11.09519 5.284775,-15.93217 0.942694,-2.4011 2.017101,-5.19907 2.387571,-6.21771 0.370469,-1.01865 1.074512,-2.63987 1.564539,-3.60272 0.490024,-0.96284 0.890955,-1.83291 0.890955,-1.93347 0,-0.10056 0.654844,-1.59787 1.455209,-3.32735 1.928542,-4.16733 1.937612,-4.87453 0.136231,-10.62234 -0.725435,-2.31471 -1.439616,-4.96374 -1.587066,-5.88675 -0.14745,-0.923 -0.45711,-2.19972 -0.688134,-2.83715 -0.231023,-0.63744 -0.820528,-3.29014 -1.310013,-5.89491 -0.489481,-2.60476 -1.018648,-4.86461 -1.175919,-5.02188 -0.19118,-0.19118 -3.988223,-0.33313 -11.456567,-0.4283 l -11.170616,-0.14236 -1.338167,-0.70141 C 14.94896,120.81403 13.301016,119.22625 13.077674,118.33638 12.092751,114.41213 26.275701,101.5141 46.397798,88.034927 62.743984,77.08512 76.29181,70.51283 85.019319,69.298945 c 1.11407,-0.154953 2.259176,-0.406749 2.54468,-0.559546 0.864727,-0.462788 11.791373,-0.348257 15.190051,0.159219 9.74405,1.454938 19.34412,5.935194 29.97605,13.989515 4.77382,3.616455 6.51214,4.383088 7.39237,3.260193 0.84871,-1.082674 1.38431,-10.002385 1.3893,-23.136629 0.003,-8.605259 -0.10305,-11.613984 -0.63644,-18.010138 -0.14075,-1.687781 -0.0299,-1.637418 1.79377,0.814714 0.77769,1.045728 1.68446,2.139449 2.01503,2.430491 0.33057,0.291042 2.2063,2.404401 4.16829,4.696354 1.96199,2.291953 3.65455,4.167188 3.76124,4.167188 0.1067,0 0.31675,0.26789 0.46679,0.595312 0.93674,2.044166 9.92473,10.765332 12.32995,11.963903 5.64528,2.813161 13.33691,-1.918991 27.26253,-16.772838 l 5.06654,-5.404248 0.0836,1.151446 c 0.0942,1.297143 -0.86239,10.882306 -1.39531,13.980876 -2.91275,16.935728 -4.29125,23.94604 -5.44508,27.690757 -0.44838,1.455208 -1.09075,3.836458 -1.42748,5.291667 -0.66793,2.886493 -1.91879,7.391099 -3.7103,13.361459 -0.63315,2.11005 -1.23598,4.25318 -1.33961,4.7625 -0.10364,0.50932 -0.2807,1.0451 -0.39347,1.19062 -0.11278,0.14552 -1.15906,2.88396 -2.32507,6.08542 -2.04425,5.61277 -3.60763,9.67946 -4.96533,12.91588 -1.06587,2.54077 -0.92353,4.38188 0.54909,7.10227 4.41931,8.1638 9.81022,19.77016 11.9011,25.62248 0.5459,1.52796 1.20104,3.19484 1.45588,3.70416 0.45263,0.90467 1.87358,4.8883 3.256,9.12813 0.93133,2.85637 1.84917,6.49288 1.68117,6.66087 -0.22459,0.22459 -4.77785,0.8429 -9.41558,1.27857 -4.96962,0.46686 -5.0454,0.50208 -5.04811,2.34556 -0.008,5.42267 -3.53676,15.93057 -7.47494,22.25875 -2.41388,3.87881 -1.86438,3.75912 -4.72414,1.02898 -9.91819,-9.46867 -13.09319,-10.38469 -14.62575,-4.2197 -0.25108,1.01001 -0.8769,2.91501 -1.39072,4.23334 -0.51382,1.31833 -1.10382,3.0518 -1.3111,3.85217 -0.20729,0.80036 -0.72364,2.34818 -1.14744,3.43958 -0.42381,1.09141 -1.32739,3.41313 -2.00797,5.15938 -4.36952,11.21144 -12.46652,24.15259 -18.84404,30.11778 l -0.80081,0.74904 z m 12.16261,-104.211 c 1.13057,-11.44303 14.04626,-17.38223 23.5393,-10.82441 2.33743,1.61471 2.4339,1.61801 1.53177,0.0525 -4.32675,-7.50837 -15.05072,-8.79622 -21.06305,-2.52948 -3.91488,4.08056 -6.30884,9.08737 -6.30884,13.19459 0,2.46648 0.0991,2.62558 1.86605,2.99639 0.0804,0.0169 0.27609,-1.28345 0.43477,-2.88961 z m -39.87165,-24.89687 c 3.12092,-0.70496 6.96932,-3.95682 8.46398,-7.152 3.91881,-8.37735 -2.17452,-17.810729 -11.506692,-17.814068 l -3.175,-0.0011 -2.318647,1.133756 c -13.764098,6.730192 -6.427657,27.213492 8.536359,23.833372 z m -6.538614,-1.78082 c -12.435213,-4.29653 -8.671872,-22.719836 4.422272,-21.64908 10.329072,0.844648 13.705112,14.45361 5.023722,20.25082 -2.8483,1.90203 -6.446447,2.43465 -9.445994,1.39826 z m -0.461902,-10.05767 c 2.161979,-0.98205 3.180586,-3.25151 2.445427,-5.44843 -0.966742,-2.888968 -5.378021,-2.884332 -7.015935,0.007 -1.941446,3.42759 1.081244,7.02601 4.570508,5.44106 z m -73.221456,10.31489 c 0.829636,-0.56669 2.571787,-1.70917 3.871447,-2.53884 1.299663,-0.82967 4.633413,-3.19995 7.408334,-5.26729 17.383259,-12.950656 22.964457,-16.35102 36.540548,-22.26246 20.314507,-8.84555 38.307803,-7.383928 43.737843,3.552888 l 1.49609,3.013324 4.49791,1.550421 c 12.85556,4.431284 23.31167,9.916097 31.58072,16.565857 1.54831,1.24512 2.98344,2.39451 3.18917,2.55421 2.0035,1.55528 -6.71457,-9.52511 -12.72253,-16.16992 C 119.64371,74.16903 96.410229,67.847293 72.446596,78.6455 60.870351,83.861848 43.314889,95.184795 30.758465,105.53357 c -8.427516,6.94581 -15.271411,14.24427 -9.946177,10.6068 z M 171.4849,79.345214 c 7.15269,-3.816889 14.58476,-9.663266 15.97684,-12.568049 1.53412,-3.20117 1.29121,-3.243398 -2.1756,-0.37822 -14.90874,12.321466 -19.38059,12.021278 -32.26126,-2.165654 -1.89177,-2.08362 -4.13319,-4.508918 -4.98093,-5.389546 l -1.54135,-1.601148 0.11006,4.653304 c 0.12856,5.435148 0.10741,5.369179 1.55756,4.857538 3.417,-1.205587 4.80521,-0.440991 13.72068,7.557003 7.29253,6.542072 7.02877,6.403658 9.594,5.034772 z"
           id="path354" /><path
           style="fill:#655651;stroke-width:0.264583"
           d="m 128.7433,246.77184 c -0.16167,-11.88111 -0.89108,-17.09923 -3.46692,-24.80204 -1.9353,-5.78731 -1.60716,-5.50947 -6.91803,-5.85778 -4.75347,-0.31175 -7.84067,-0.86849 -12.6046,-2.27307 -8.81899,-2.60017 -8.642256,-2.65336 -17.684077,5.32194 -6.434325,5.67536 -11.485941,9.21483 -18.803966,13.17519 -2.398858,1.29822 -8.733692,4.22893 -8.862513,4.10011 -0.04185,-0.0419 1.021649,-2.27753 2.363322,-4.96817 2.22627,-4.46466 4.035682,-8.60599 5.432041,-12.43271 2.434998,-6.67312 4.892498,-22.54571 3.678616,-23.75959 -0.721129,-0.72113 -2.248688,-0.37296 -3.576272,0.81511 -5.187416,4.64231 -9.813121,9.66759 -11.682712,12.69187 -1.057028,1.70987 -2.028473,3.10886 -2.158769,3.10886 -0.257167,0 -3.183462,-4.8206 -4.453176,-7.33589 -0.849791,-1.68343 -2.964847,-9.71452 -3.468251,-13.16932 -0.452128,-3.10292 -0.499351,-3.26849 -1.010184,-3.54188 -0.256776,-0.13742 -2.823911,-0.44559 -5.704742,-0.68481 -7.132762,-0.59231 -6.895336,-0.4801 -6.331234,-2.99218 0.617416,-2.74948 3.385728,-11.09519 5.284775,-15.93217 0.942694,-2.4011 2.017101,-5.19907 2.387571,-6.21771 0.370469,-1.01865 1.074512,-2.63987 1.564539,-3.60272 0.490024,-0.96284 0.890955,-1.83291 0.890955,-1.93347 0,-0.10056 0.654844,-1.59787 1.455209,-3.32735 1.928542,-4.16733 1.937612,-4.87453 0.136231,-10.62234 -0.725435,-2.31471 -1.439616,-4.96374 -1.587066,-5.88675 -0.14745,-0.923 -0.45711,-2.19972 -0.688134,-2.83715 -0.231023,-0.63744 -0.820528,-3.29014 -1.310013,-5.89491 -0.489481,-2.60476 -1.018648,-4.86461 -1.175919,-5.02188 -0.19118,-0.19118 -3.988223,-0.33313 -11.456567,-0.4283 l -11.170616,-0.14236 -1.338167,-0.70141 C 14.94896,120.81403 13.301016,119.22625 13.077674,118.33638 12.092751,114.41213 26.275701,101.5141 46.397798,88.034927 62.743984,77.08512 76.29181,70.51283 85.019319,69.298945 c 1.11407,-0.154953 2.259176,-0.406749 2.54468,-0.559546 0.864727,-0.462788 11.791373,-0.348257 15.190051,0.159219 9.74405,1.454938 19.34412,5.935194 29.97605,13.989515 4.77382,3.616455 6.51214,4.383088 7.39237,3.260193 0.84871,-1.082674 1.38431,-10.002385 1.3893,-23.136629 0.003,-8.605259 -0.10305,-11.613984 -0.63644,-18.010138 -0.14075,-1.687781 -0.0299,-1.637418 1.79377,0.814714 0.77769,1.045728 1.68446,2.139449 2.01503,2.430491 0.33057,0.291042 2.2063,2.404401 4.16829,4.696354 1.96199,2.291953 3.65455,4.167188 3.76124,4.167188 0.1067,0 0.31675,0.26789 0.46679,0.595312 0.93674,2.044166 9.92473,10.765332 12.32995,11.963903 5.64528,2.813161 13.33691,-1.918991 27.26253,-16.772838 l 5.06654,-5.404248 0.0836,1.151446 c 0.0942,1.297143 -0.86239,10.882306 -1.39531,13.980876 -2.91275,16.935728 -4.29125,23.94604 -5.44508,27.690757 -0.44838,1.455208 -1.09075,3.836458 -1.42748,5.291667 -0.66793,2.886493 -1.91879,7.391099 -3.7103,13.361459 -0.63315,2.11005 -1.23598,4.25318 -1.33961,4.7625 -0.10364,0.50932 -0.2807,1.0451 -0.39347,1.19062 -0.11278,0.14552 -1.15906,2.88396 -2.32507,6.08542 -2.04425,5.61277 -3.60763,9.67946 -4.96533,12.91588 -1.06587,2.54077 -0.92353,4.38188 0.54909,7.10227 4.41931,8.1638 9.81022,19.77016 11.9011,25.62248 0.5459,1.52796 1.20104,3.19484 1.45588,3.70416 0.45263,0.90467 1.87358,4.8883 3.256,9.12813 0.93133,2.85637 1.84917,6.49288 1.68117,6.66087 -0.22459,0.22459 -4.77785,0.8429 -9.41558,1.27857 -4.96962,0.46686 -5.0454,0.50208 -5.04811,2.34556 -0.008,5.42267 -3.53676,15.93057 -7.47494,22.25875 -2.41388,3.87881 -1.86438,3.75912 -4.72414,1.02898 -9.91819,-9.46867 -13.09319,-10.38469 -14.62575,-4.2197 -0.25108,1.01001 -0.8769,2.91501 -1.39072,4.23334 -0.51382,1.31833 -1.10382,3.0518 -1.3111,3.85217 -0.20729,0.80036 -0.72364,2.34818 -1.14744,3.43958 -0.42381,1.09141 -1.32739,3.41313 -2.00797,5.15938 -4.36952,11.21144 -12.46652,24.15259 -18.84404,30.11778 l -0.80081,0.74904 z m 12.16261,-104.211 c 1.13057,-11.44303 14.04626,-17.38223 23.5393,-10.82441 2.33743,1.61471 2.4339,1.61801 1.53177,0.0525 -4.32675,-7.50837 -15.05072,-8.79622 -21.06305,-2.52948 -3.91488,4.08056 -6.30884,9.08737 -6.30884,13.19459 0,2.46648 0.0991,2.62558 1.86605,2.99639 0.0804,0.0169 0.27609,-1.28345 0.43477,-2.88961 z M 74.231674,120.56097 c 2.393834,-7.3062 -2.579891,-20.39497 -11.108251,-29.232266 -1.615194,-1.673706 -1.554631,-1.910077 0.791147,-3.087857 22.022189,-11.056995 42.57048,-10.470171 48.45589,1.383821 l 1.49609,3.013324 4.49791,1.550421 c 12.85556,4.431284 23.31167,9.916097 31.58072,16.565857 1.54831,1.24512 2.98344,2.39451 3.18917,2.55421 2.0035,1.55528 -6.71457,-9.52511 -12.72253,-16.16992 C 121.53712,76.263139 100.43831,69.075881 78.809257,76.153802 64.996972,80.673753 40.569234,96.356367 24.467081,111.04149 c -6.883204,6.27747 -7.018303,7.08485 -0.823449,4.92114 6.538669,-2.28379 12.633843,-3.83535 25.923025,-6.59885 3.144428,-0.65389 6.033556,-1.18889 6.420287,-1.18889 1.999573,0 -1.619946,1.18781 -11.308937,3.71124 -21.183275,5.51704 -20.870323,5.39659 -13.361459,5.14271 7.537442,-0.25484 21.439138,0.65487 28.839584,1.88722 3.081046,0.51307 11.145234,2.14706 12.170833,2.4661 1.216522,0.37842 1.560211,0.23024 1.904709,-0.82119 z m 26.802586,-2.897 c 3.12092,-0.70496 6.96932,-3.95682 8.46398,-7.152 3.91881,-8.37735 -2.17452,-17.810729 -11.506692,-17.814068 l -3.175,-0.0011 -2.318647,1.133756 c -13.764098,6.730192 -6.427657,27.213492 8.536359,23.833372 z m -6.538614,-1.78082 c -12.435213,-4.29653 -8.671872,-22.719836 4.422272,-21.64908 10.329072,0.844648 13.705112,14.45361 5.023722,20.25082 -2.8483,1.90203 -6.446447,2.43465 -9.445994,1.39826 z m -0.461902,-10.05767 c 2.161979,-0.98205 3.180586,-3.25151 2.445427,-5.44843 -0.966742,-2.888968 -5.378021,-2.884332 -7.015935,0.007 -1.941446,3.42759 1.081244,7.02601 4.570508,5.44106 z M 171.4849,79.345214 c 7.15269,-3.816889 14.58476,-9.663266 15.97684,-12.568049 1.53412,-3.20117 1.29121,-3.243398 -2.1756,-0.37822 -14.90874,12.321466 -19.38059,12.021278 -32.26126,-2.165654 -1.89177,-2.08362 -4.13319,-4.508918 -4.98093,-5.389546 l -1.54135,-1.601148 0.11006,4.653304 c 0.12856,5.435148 0.10741,5.369179 1.55756,4.857538 3.417,-1.205587 4.80521,-0.440991 13.72068,7.557003 7.29253,6.542072 7.02877,6.403658 9.594,5.034772 z"
           id="path352" /><path
           style="fill:#a41a23;stroke-width:0.264583"
           d="m 128.73392,246.50432 c -0.0822,-5.54598 -0.27294,-10.45411 -0.4352,-11.19714 -0.15889,-0.7276 -0.52753,-2.87073 -0.81922,-4.7625 -0.65,-4.21564 -3.18225,-12.2888 -4.2144,-13.43606 -0.65325,-0.72611 -0.75367,-0.74714 -4.76834,-0.9987 -4.70089,-0.29455 -8.90815,-1.0894 -14.03071,-2.65071 -4.30371,-1.31174 -6.63327,-1.57549 -7.947006,-0.89976 -1.272318,0.65442 -5.51031,3.95435 -8.184787,6.37311 -5.643468,5.10388 -11.400042,9.16067 -18.870031,13.29815 -1.79737,0.99553 -8.954571,4.31194 -9.065744,4.20076 -0.04166,-0.0417 0.821378,-1.84481 1.917867,-4.007 5.473467,-10.79328 7.811077,-18.00347 9.353817,-28.85118 0.991796,-6.97376 0.758838,-8.61507 -1.222777,-8.61507 -1.752561,0 -11.001394,9.24478 -13.830546,13.82448 -2.286432,3.70117 -2.057181,3.64363 -3.689131,0.92604 -3.601823,-5.99788 -5.31913,-11.00502 -6.49687,-18.94287 -0.487074,-3.28282 -0.172254,-3.10496 -6.383044,-3.60619 -7.39848,-0.59707 -7.122128,-0.47094 -6.555965,-2.9922 0.964362,-4.29449 6.861593,-20.86208 8.920219,-25.0603 0.59079,-1.20482 1.36807,-2.94981 3.643365,-8.17933 0.989245,-2.27367 0.942231,-2.74036 -0.855237,-8.48942 -0.727964,-2.32833 -1.440717,-4.96195 -1.583896,-5.85249 -0.143182,-0.89053 -0.447802,-2.14069 -0.676939,-2.77812 -0.229135,-0.63744 -0.818412,-3.28991 -1.309502,-5.8944 -0.491094,-2.60448 -1.02406,-4.86667 -1.184373,-5.02708 -0.198758,-0.19888 -3.843245,-0.33428 -11.457075,-0.42563 l -11.165597,-0.13398 -1.322916,-0.70306 c -5.348412,-2.8424 -4.304972,-6.12255 4.459345,-14.01838 14.903196,-13.426365 36.689496,-28.007327 50.959967,-34.106084 4.501333,-1.92373 9.193017,-3.493775 11.784854,-3.943739 1.018646,-0.176845 2.328334,-0.453731 2.910417,-0.615304 2.07005,-0.574599 12.967174,-0.535496 16.628945,0.05967 5.43278,0.883015 11.61876,2.977303 16.57626,5.611953 5.50098,2.923482 8.64997,5.015431 16.42661,10.912628 1.17017,0.887362 3.37618,1.26124 3.84826,0.652206 1.17553,-1.516568 1.97803,-26.569297 1.16691,-36.429117 -0.57111,-6.942267 -0.60229,-6.822728 1.12005,-4.294083 0.45173,0.663214 1.54986,1.979749 2.44029,2.925635 0.89043,0.945885 2.95319,3.287993 4.58393,5.204683 1.63073,1.91669 3.05263,3.524034 3.15977,3.571875 0.10715,0.04784 0.49899,0.52916 0.87077,1.069596 2.14481,3.117789 9.64087,10.281591 11.97614,11.445306 5.84108,2.910731 13.16916,-1.768195 28.99537,-18.513335 l 3.50089,-3.704167 -0.15306,2.726959 c -0.22363,3.984634 -1.16126,11.970023 -1.74574,14.867833 -0.27884,1.382448 -1.0409,5.609166 -1.69347,9.392708 -1.44549,8.38078 -2.24513,12.136668 -3.57702,16.801042 -0.56096,1.964531 -1.20571,4.345781 -1.43278,5.291666 -0.50473,2.102557 -2.99741,10.932159 -4.25758,15.081249 -1.07771,3.54836 -5.23437,14.91788 -7.38327,20.19513 -1.9989,4.90889 -2.03981,6.19715 -0.29548,9.30591 3.84888,6.85952 9.7633,19.54786 11.90139,25.5323 0.5459,1.52796 1.20104,3.19484 1.45588,3.70416 0.45263,0.90467 1.87358,4.8883 3.256,9.12813 0.86819,2.66272 1.85305,6.48899 1.70766,6.63439 -0.19513,0.19512 -7.11047,1.13595 -10.49969,1.42847 -3.83676,0.33114 -3.98783,0.41527 -3.99049,2.22214 -0.009,6.21145 -4.79563,19.18222 -9.22495,24.99848 l -0.47449,0.62307 -2.758,-2.60744 c -7.88002,-7.44987 -10.11804,-8.73679 -12.56438,-7.22487 -0.83849,0.51822 -1.96368,2.72464 -1.96368,3.85065 0,0.22219 -0.48595,1.67624 -1.07987,3.23122 -0.59394,1.55497 -1.31132,3.64025 -1.5942,4.63395 -0.46,1.61594 -2.50679,7.07432 -3.98555,10.62869 -4.18992,10.07093 -12.00016,22.18212 -17.88478,27.7336 l -0.79087,0.74609 z m 12.09953,-102.54454 c 0.68605,-6.96867 2.83951,-10.5146 7.88144,-12.97773 5.61152,-2.74139 11.03362,-2.44053 15.82682,0.87821 2.88366,1.9966 3.00566,1.99159 1.75212,-0.072 -2.50345,-4.12113 -5.97199,-6.23236 -11.21336,-6.82535 -5.83308,-0.65994 -12.34437,4.40257 -15.70543,12.2109 -1.19895,2.7854 -1.34665,6.93599 -0.27762,7.80155 1.15062,0.93162 1.56839,0.68721 1.73603,-1.01562 z M 74.231674,120.56097 c 2.393834,-7.3062 -2.579891,-20.39497 -11.108251,-29.232266 -1.689417,-1.750621 -1.606836,-1.928598 1.590715,-3.428193 23.30074,-10.927651 42.842822,-9.866334 47.986032,2.606096 0.92822,2.250956 0.68123,2.064104 4.34138,3.28422 13.75639,4.5857 25.55427,10.814593 33.93995,17.919193 3.57565,3.0294 3.64847,3.07831 3.15077,2.11638 C 152.21345,110.11779 140.34301,96.232576 134.20073,90.51189 116.62164,74.139389 96.532347,69.259798 76.78697,76.56637 62.299979,81.92713 35.963558,99.412331 22.556382,112.57099 c -5.568302,5.46508 -5.390814,6.01776 1.110686,3.45856 3.778007,-1.48715 12.356574,-3.88636 16.715177,-4.67481 0.689179,-0.12468 2.02696,-0.42054 2.972845,-0.65748 0.945885,-0.23694 2.374635,-0.54035 3.175,-0.67423 0.800365,-0.13388 3.062552,-0.60067 5.027083,-1.03731 8.705631,-1.9349 4.840079,-0.01 -4.497916,2.24005 -1.67349,0.4032 -3.280834,0.83607 -3.571875,0.96193 -0.291042,0.12586 -1.303073,0.39781 -2.248959,0.60433 -0.945885,0.20652 -4.339166,1.07958 -7.540625,1.94013 -3.201458,0.86055 -6.246632,1.64372 -6.767054,1.74038 -2.848356,0.52904 -1.993506,0.97673 1.475388,0.77266 7.09295,-0.41726 16.245316,-0.079 26.722916,0.98777 4.127887,0.42026 10.443187,1.5702 16.007292,2.91474 2.53446,0.61244 2.713553,0.57849 3.095334,-0.58674 z m 25.862346,-2.60802 c 2.36895,-0.34237 4.72238,-1.64261 6.8679,-3.79438 6.33612,-6.35463 4.61951,-16.186842 -3.55559,-20.365325 l -2.40406,-1.228773 h -2.770668 c -10.710143,0 -16.771128,11.000368 -10.886734,19.758848 3.043733,4.53036 7.312586,6.41536 12.749152,5.62963 z m -3.293097,-1.76283 c -13.63809,-2.36676 -12.576561,-21.630327 1.190625,-21.606226 12.956072,0.02267 14.611272,18.402806 1.926559,21.393416 -1.689966,0.39844 -1.946574,0.41596 -3.117184,0.21281 z m -1.765167,-10.56406 c 1.775222,-1.15871 2.458738,-3.51207 1.625145,-5.59542 -1.108467,-2.770332 -6.008071,-2.628436 -7.466748,0.21624 -2.150576,4.194 1.917774,7.94029 5.841603,5.37918 z M 172.16548,79.046275 c 7.05341,-3.963313 14.19826,-9.576869 15.49928,-12.177464 1.94222,-3.882276 1.30554,-3.983934 -2.88988,-0.461425 -9.92504,8.333144 -15.97298,10.332376 -21.45498,7.092241 -1.92214,-1.136076 -7.19077,-6.204411 -12.22383,-11.759113 -5.55411,-6.129754 -5.18301,-6.163493 -4.79443,0.43589 0.33331,5.660642 0.13737,5.200759 1.96974,4.623155 3.47958,-1.096841 4.69478,-0.43203 13.22017,7.232499 7.90169,7.103811 7.38614,6.861625 10.67393,5.014217 z"
           id="path350" /><path
           style="fill:#65141a;stroke-width:0.264583"
           d="m 128.73392,246.50432 c -0.0822,-5.54598 -0.27294,-10.45411 -0.4352,-11.19714 -0.15889,-0.7276 -0.52753,-2.87073 -0.81922,-4.7625 -0.65,-4.21564 -3.18225,-12.2888 -4.2144,-13.43606 -0.65325,-0.72611 -0.75367,-0.74714 -4.76834,-0.9987 -4.70089,-0.29455 -8.90815,-1.0894 -14.03071,-2.65071 -4.30371,-1.31174 -6.63327,-1.57549 -7.947006,-0.89976 -1.272318,0.65442 -5.51031,3.95435 -8.184787,6.37311 -5.643468,5.10388 -11.400042,9.16067 -18.870031,13.29815 -1.79737,0.99553 -8.954571,4.31194 -9.065744,4.20076 -0.04166,-0.0417 0.821378,-1.84481 1.917867,-4.007 5.473467,-10.79328 7.811077,-18.00347 9.353817,-28.85118 0.991796,-6.97376 0.758838,-8.61507 -1.222777,-8.61507 -1.752561,0 -11.001394,9.24478 -13.830546,13.82448 -2.286432,3.70117 -2.057181,3.64363 -3.689131,0.92604 -3.601823,-5.99788 -5.31913,-11.00502 -6.49687,-18.94287 -0.487074,-3.28282 -0.172254,-3.10496 -6.383044,-3.60619 -7.39848,-0.59707 -7.122128,-0.47094 -6.555965,-2.9922 0.964362,-4.29449 6.861593,-20.86208 8.920219,-25.0603 0.59079,-1.20482 1.36807,-2.94981 3.643365,-8.17933 0.989245,-2.27367 0.942231,-2.74036 -0.855237,-8.48942 -0.727964,-2.32833 -1.440717,-4.96195 -1.583896,-5.85249 -0.143182,-0.89053 -0.447802,-2.14069 -0.676939,-2.77812 -0.229135,-0.63744 -0.818412,-3.28991 -1.309502,-5.8944 -0.491094,-2.60448 -1.02406,-4.86667 -1.184373,-5.02708 -0.198758,-0.19888 -3.843245,-0.33428 -11.457075,-0.42563 l -11.165597,-0.13398 -1.322916,-0.70306 c -5.348412,-2.8424 -4.304972,-6.12255 4.459345,-14.01838 14.903196,-13.426365 36.689496,-28.007327 50.959967,-34.106084 4.501333,-1.92373 9.193017,-3.493775 11.784854,-3.943739 1.018646,-0.176845 2.328334,-0.453731 2.910417,-0.615304 2.07005,-0.574599 12.967174,-0.535496 16.628945,0.05967 5.43278,0.883015 11.61876,2.977303 16.57626,5.611953 5.50098,2.923482 8.64997,5.015431 16.42661,10.912628 1.17017,0.887362 3.37618,1.26124 3.84826,0.652206 1.17553,-1.516568 1.97803,-26.569297 1.16691,-36.429117 -0.57111,-6.942267 -0.60229,-6.822728 1.12005,-4.294083 0.45173,0.663214 1.54986,1.979749 2.44029,2.925635 0.89043,0.945885 2.95319,3.287993 4.58393,5.204683 1.63073,1.91669 3.05263,3.524034 3.15977,3.571875 0.10715,0.04784 0.49899,0.52916 0.87077,1.069596 2.14481,3.117789 9.64087,10.281591 11.97614,11.445306 5.84108,2.910731 13.16916,-1.768195 28.99537,-18.513335 l 3.50089,-3.704167 -0.15306,2.726959 c -0.22363,3.984634 -1.16126,11.970023 -1.74574,14.867833 -0.27884,1.382448 -1.0409,5.609166 -1.69347,9.392708 -1.44549,8.38078 -2.24513,12.136668 -3.57702,16.801042 -0.56096,1.964531 -1.20571,4.345781 -1.43278,5.291666 -0.50473,2.102557 -2.99741,10.932159 -4.25758,15.081249 -1.07771,3.54836 -5.23437,14.91788 -7.38327,20.19513 -1.9989,4.90889 -2.03981,6.19715 -0.29548,9.30591 3.84888,6.85952 9.7633,19.54786 11.90139,25.5323 0.5459,1.52796 1.20104,3.19484 1.45588,3.70416 0.45263,0.90467 1.87358,4.8883 3.256,9.12813 0.86819,2.66272 1.85305,6.48899 1.70766,6.63439 -0.19513,0.19512 -7.11047,1.13595 -10.49969,1.42847 -3.83676,0.33114 -3.98783,0.41527 -3.99049,2.22214 -0.009,6.21145 -4.79563,19.18222 -9.22495,24.99848 l -0.47449,0.62307 -2.758,-2.60744 c -7.88002,-7.44987 -10.11804,-8.73679 -12.56438,-7.22487 -0.83849,0.51822 -1.96368,2.72464 -1.96368,3.85065 0,0.22219 -0.48595,1.67624 -1.07987,3.23122 -0.59394,1.55497 -1.31132,3.64025 -1.5942,4.63395 -0.46,1.61594 -2.50679,7.07432 -3.98555,10.62869 -4.18992,10.07093 -12.00016,22.18212 -17.88478,27.7336 l -0.79087,0.74609 z m 12.31804,-16.81954 c 1.14698,-2.1233 2.88402,-6.40321 2.71186,-6.68176 -0.48641,-0.78704 -8.15701,-0.14232 -10.16415,0.8543 -2.01743,1.00172 -1.64217,2.11375 1.5295,4.53246 3.86454,2.94711 4.9072,3.17508 5.92279,1.295 z m -60.258328,-13.2047 c 3.570838,-1.56812 5.269362,-2.52231 5.363495,-3.0131 0.118708,-0.61891 -8.805608,-9.06638 -9.136366,-8.64819 -0.141769,0.17924 -0.335714,0.93951 -0.430993,1.68949 -0.09528,0.74998 -0.527839,2.62647 -0.961247,4.16998 -0.939827,3.34702 -0.938467,3.31832 -0.224298,4.72957 1.493035,2.95032 1.231312,2.89825 5.389409,1.07225 z M 171.54515,205.6077 c 2.71797,-5.72043 4.23672,-13.21257 3.93604,-19.41683 l -0.17486,-3.60798 1.29469,-0.15257 c 0.71208,-0.0839 3.55688,-0.22455 6.32178,-0.31252 7.00671,-0.22294 6.5013,0.33588 4.65898,-5.15124 -4.2315,-12.60305 -8.16016,-21.03948 -12.19532,-26.18829 -3.66538,-4.67696 -6.57113,-10.1463 -6.89075,-12.97005 -1.24384,-10.98924 -14.03285,-16.66268 -22.32832,-9.90524 -6.2598,5.0992 -10.84157,17.63434 -9.56272,26.16237 l 0.19036,1.26941 0.97118,-0.15052 c 0.53414,-0.0828 1.21826,-0.2247 1.52025,-0.31537 0.49466,-0.14851 0.68808,0.18446 1.95167,3.35965 3.51837,8.84106 9.40144,19.09266 20.24293,35.27449 3.80235,5.67532 7.36313,11.06289 7.91285,11.9724 1.22086,2.01989 1.25343,2.02189 2.15124,0.13229 z M 57.805042,199.39668 c 3.426195,-3.28929 3.380869,-2.91956 0.855178,-6.97568 -4.592744,-7.3757 -8.709822,-16.70572 -10.75813,-24.37981 -0.68184,-2.55454 -1.358771,-4.65723 -1.504292,-4.67265 -0.657772,-0.0697 -7.113698,17.85329 -6.602089,18.32873 0.138649,0.12885 2.930996,0.37942 6.205214,0.55681 3.274219,0.1774 6.042422,0.37699 6.151563,0.44354 0.10914,0.0666 0.198437,2.72795 0.198437,5.91423 v 5.79324 l 1.058111,2.98855 c 1.774071,5.01071 1.427594,4.85283 4.396008,2.00304 z m 69.026088,-2.18943 c 4.88689,-0.66085 11.49851,-2.19269 12.44215,-2.88269 0.5882,-0.4301 0.44452,-1.03045 -1.68459,-7.03925 -2.82003,-7.95872 -5.28814,-18.91525 -5.60249,-24.87084 -0.12673,-2.40109 -0.3669,-5.79437 -0.53369,-7.54062 -1.49851,-15.68839 6.98423,-31.78153 18.1401,-34.41472 1.78642,-0.42166 7.30863,-0.38608 8.45673,0.0545 0.70091,0.26896 0.44147,-0.27119 -1.38644,-2.88658 -0.98226,-1.40543 -2.46267,-3.6011 -3.28979,-4.87926 -4.4714,-6.90973 -17.1224,-20.979711 -23.36698,-25.987914 C 113.43127,73.466694 94.80488,69.899028 76.78697,76.56637 c -15.637968,5.786665 -47.49995,27.49828 -57.018315,38.85382 -2.161754,2.579 -1.96007,2.60538 4.271852,0.55891 8.17667,-2.68509 28.575,-7.47556 28.575,-6.71072 0,0.12618 -0.06243,0.22943 -0.138737,0.22943 -0.07631,0 -1.969188,0.53496 -4.206402,1.1888 -2.237213,0.65385 -7.205173,1.97455 -11.039909,2.93491 -7.560013,1.89329 -11.747468,3.14169 -12.020629,3.58367 -0.121468,0.19654 1.559097,0.22504 5.6125,0.0952 11.141594,-0.35698 24.302646,0.73708 35.286927,2.93335 5.501365,1.09998 6.614583,1.41055 6.614583,1.84539 0,0.62315 -0.987549,0.69459 -13.096875,0.94741 -13.725967,0.28658 -13.361458,0.25523 -13.361458,1.14918 0,7.16436 7.162641,25.56249 15.096204,38.77647 10.000903,16.65729 25.639175,29.73512 39.804839,33.2876 6.31144,1.5828 17.88758,2.01919 25.66458,0.9675 z M 96.800923,116.19012 c -13.63809,-2.36676 -12.576561,-21.630327 1.190625,-21.606226 12.956072,0.02267 14.611272,18.402806 1.926559,21.393416 -1.689966,0.39844 -1.946574,0.41596 -3.117184,0.21281 z m -1.765167,-10.56406 c 1.775222,-1.15871 2.458738,-3.51207 1.625145,-5.59542 -1.108467,-2.770332 -6.008071,-2.628436 -7.466748,0.21624 -2.150576,4.194 1.917774,7.94029 5.841603,5.37918 z M 170.428,119.1551 c 6.56457,-14.90752 12.79411,-32.714607 15.41132,-44.053128 0.68859,-2.983177 1.59399,-6.539928 2.012,-7.903895 1.32913,-4.336931 1.18987,-4.372721 -3.07644,-0.790691 -9.92504,8.333144 -15.97298,10.332376 -21.45498,7.092241 -1.92214,-1.136076 -7.19077,-6.204411 -12.22383,-11.759113 -5.52042,-6.092579 -5.18585,-6.086319 -4.82117,-0.09022 0.43175,7.098832 0.34815,12.853953 -0.40873,28.136048 l -0.17035,3.439584 2.87078,3.471219 c 6.66888,8.063715 10.95976,13.773455 15.95012,21.224345 2.07967,3.10505 3.86726,5.54583 3.97242,5.42395 0.10517,-0.12188 0.97765,-2.00754 1.93886,-4.19034 z"
           id="path348" /><path
           style="fill:#070303;stroke:#000000;stroke-width:0.661987;stroke-dasharray:none;stroke-opacity:1"
           d="m 128.73392,246.50432 c -0.0822,-5.54598 -0.27294,-10.45411 -0.4352,-11.19714 -0.15889,-0.7276 -0.52753,-2.87073 -0.81922,-4.7625 -0.65,-4.21564 -3.18225,-12.2888 -4.2144,-13.43606 -0.65325,-0.72611 -0.75367,-0.74714 -4.76834,-0.9987 -4.70089,-0.29455 -8.90815,-1.0894 -14.03071,-2.65071 -4.30371,-1.31174 -6.63327,-1.57549 -7.947006,-0.89976 -1.272318,0.65442 -5.51031,3.95435 -8.184787,6.37311 -5.643468,5.10388 -11.400042,9.16067 -18.870031,13.29815 -1.79737,0.99553 -8.954571,4.31194 -9.065744,4.20076 -0.04166,-0.0417 0.821378,-1.84481 1.917867,-4.007 5.473467,-10.79328 7.811077,-18.00347 9.353817,-28.85118 0.991796,-6.97376 0.758838,-8.61507 -1.222777,-8.61507 -1.752561,0 -11.001394,9.24478 -13.830546,13.82448 -2.286432,3.70117 -2.057181,3.64363 -3.689131,0.92604 -3.601823,-5.99788 -5.31913,-11.00502 -6.49687,-18.94287 -0.487074,-3.28282 -0.172254,-3.10496 -6.383044,-3.60619 -7.39848,-0.59707 -7.122128,-0.47094 -6.555965,-2.9922 0.964362,-4.29449 6.861593,-20.86208 8.920219,-25.0603 0.59079,-1.20482 1.36807,-2.94981 3.643365,-8.17933 0.989245,-2.27367 0.942231,-2.74036 -0.855237,-8.48942 -0.727964,-2.32833 -1.440717,-4.96195 -1.583896,-5.85249 -0.143182,-0.89053 -0.447802,-2.14069 -0.676939,-2.77812 -0.229135,-0.63744 -0.818412,-3.28991 -1.309502,-5.8944 -0.491094,-2.60448 -1.02406,-4.86667 -1.184373,-5.02708 -0.198758,-0.19888 -3.843245,-0.33428 -11.457075,-0.42563 l -11.165597,-0.13398 -1.322916,-0.70306 c -5.348412,-2.8424 -4.304972,-6.12255 4.459345,-14.01838 14.903196,-13.426365 36.689496,-28.007327 50.959967,-34.106084 4.501333,-1.92373 9.193017,-3.493775 11.784854,-3.943739 1.018646,-0.176845 2.328334,-0.453731 2.910417,-0.615304 2.07005,-0.574599 12.967174,-0.535496 16.628945,0.05967 5.43278,0.883015 11.61876,2.977303 16.57626,5.611953 5.50098,2.923482 8.64997,5.015431 16.42661,10.912628 1.17017,0.887362 3.37618,1.26124 3.84826,0.652206 1.17553,-1.516568 1.97803,-26.569297 1.16691,-36.429117 -0.57111,-6.942267 -0.60229,-6.822728 1.12005,-4.294083 0.45173,0.663214 1.54986,1.979749 2.44029,2.925635 0.89043,0.945885 2.95319,3.287993 4.58393,5.204683 1.63073,1.91669 3.05263,3.524034 3.15977,3.571875 0.10715,0.04784 0.49899,0.52916 0.87077,1.069596 2.14481,3.117789 9.64087,10.281591 11.97614,11.445306 5.84108,2.910731 13.16916,-1.768195 28.99537,-18.513335 l 3.50089,-3.704167 -0.15306,2.726959 c -0.22363,3.984634 -1.16126,11.970023 -1.74574,14.867833 -0.27884,1.382448 -1.0409,5.609166 -1.69347,9.392708 -1.44549,8.38078 -2.24513,12.136668 -3.57702,16.801042 -0.56096,1.964531 -1.20571,4.345781 -1.43278,5.291666 -0.50473,2.102557 -2.99741,10.932159 -4.25758,15.081249 -1.07771,3.54836 -5.23437,14.91788 -7.38327,20.19513 -1.9989,4.90889 -2.03981,6.19715 -0.29548,9.30591 3.84888,6.85952 9.7633,19.54786 11.90139,25.5323 0.5459,1.52796 1.20104,3.19484 1.45588,3.70416 0.45263,0.90467 1.87358,4.8883 3.256,9.12813 0.86819,2.66272 1.85305,6.48899 1.70766,6.63439 -0.19513,0.19512 -7.11047,1.13595 -10.49969,1.42847 -3.83676,0.33114 -3.98783,0.41527 -3.99049,2.22214 -0.009,6.21145 -4.79563,19.18222 -9.22495,24.99848 l -0.47449,0.62307 -2.758,-2.60744 c -7.88002,-7.44987 -10.11804,-8.73679 -12.56438,-7.22487 -0.83849,0.51822 -1.96368,2.72464 -1.96368,3.85065 0,0.22219 -0.48595,1.67624 -1.07987,3.23122 -0.59394,1.55497 -1.31132,3.64025 -1.5942,4.63395 -0.46,1.61594 -2.50679,7.07432 -3.98555,10.62869 -4.18992,10.07093 -12.00016,22.18212 -17.88478,27.7336 l -0.79087,0.74609 z m 6.97623,-5.37631 c 4.69257,-8.09517 13.47827,-27.94342 13.47827,-30.44949 0,-0.27819 -0.88735,0.0131 -5.24774,1.72291 -4.56703,1.79079 -8.47636,2.95552 -13.00851,3.87569 -3.10125,0.62966 -2.97701,0.3876 -1.79964,3.50614 2.03836,5.39909 3.90235,13.72322 4.30566,19.22809 0.27572,3.76332 0.44551,4.95967 0.6708,4.72647 0.12144,-0.12571 0.84196,-1.30012 1.60116,-2.60981 z M 74.575923,223.7144 c 4.321948,-2.89028 6.182432,-4.33137 10.342804,-8.01128 2.123278,-1.87808 4.496736,-3.95605 5.274349,-4.61772 1.742168,-1.4824 1.87392,-1.27356 -2.734775,-4.33489 -2.06484,-1.37157 -4.930707,-3.42507 -6.368595,-4.56334 -1.437886,-1.13826 -2.780729,-2.18864 -2.984093,-2.33416 -0.479562,-0.34316 -0.784688,0.13625 -0.999826,1.57089 -0.225428,1.50325 -2.658226,12.27885 -3.319034,14.70099 -0.595921,2.1843 -1.723974,5.02657 -3.045272,7.67292 -0.472273,0.94588 -0.944308,1.99545 -1.04897,2.33237 l -0.190293,0.61258 1.147791,-0.58525 c 0.631283,-0.32189 2.397946,-1.42129 3.925914,-2.44311 z m 55.105987,-12.47721 c 7.20429,-0.95891 20.18495,-5.71762 23.96736,-8.78642 l 0.62439,-0.50659 -2.40305,-3.07428 c -8.51972,-10.89947 -14.94967,-24.13346 -19.13162,-39.37628 -1.63067,-5.94363 -0.75873,-16.57062 1.87946,-22.90633 4.98844,-11.97994 12.56259,-17.28528 22.24289,-15.58011 2.68112,0.47228 2.64583,0.47071 2.64583,0.11777 0,-1.24361 -12.317,-17.07048 -18.94921,-24.348991 -19.41354,-21.305374 -40.31166,-28.218135 -62.708487,-20.74296 -13.15855,4.391805 -38.286865,20.68754 -53.777507,34.874761 -7.25001,6.63998 -7.455025,7.95421 -0.895771,5.74225 6.512362,-2.19615 21.339892,-6.00118 22.508514,-5.77612 0.235395,0.0453 -3.377393,1.0662 -8.028419,2.26861 -10.350481,2.67584 -11.818159,3.1118 -12.595584,3.74131 l -0.611378,0.49507 1.9784,0.15533 c 1.088123,0.0854 5.966997,0.22458 10.841945,0.30922 13.767369,0.23902 18.119672,0.64556 28.288036,2.6423 9.188199,1.80426 8.90089,1.87826 -8.281556,2.13281 l -11.611229,0.17202 0.152056,1.75414 c 0.539543,6.22417 7.299446,28.80372 11.70409,39.09422 14.144593,33.04577 42.243721,51.58034 72.16084,47.59827 z M 94.488903,115.73552 c -7.931732,-2.70359 -10.255598,-12.6394 -4.235623,-18.441113 6.164088,-5.940597 16.79355,-2.515476 18.56373,5.974353 1.63672,7.84975 -6.7945,15.03464 -14.328107,12.46676 z m 0.524945,-10.49751 c 2.882519,-2.1986 2.32952,-6.296773 -0.793277,-6.922276 -3.111628,-0.623265 -5.290894,1.004141 -5.487531,4.302986 -0.198779,3.33478 3.55474,4.69857 6.280808,2.61929 z m 76.697812,101.29573 c 2.70269,-5.3523 4.27167,-12.17277 4.30617,-18.71927 l 0.0258,-4.89479 5.82083,-0.16177 c 8.80399,-0.24468 8.37766,0.19564 6.12036,-6.32122 -5.4195,-15.64618 -17.91916,-40.81338 -23.59796,-47.51285 -1.94809,-2.29824 -6.52351,-4.08558 -10.43062,-4.07462 -11.32974,0.0318 -20.50922,17.85462 -17.37169,33.72879 1.60658,8.12837 8.13898,23.10163 13.73619,31.48542 3.53457,5.29427 4.66521,6.43852 11.03851,11.17134 2.54662,1.89112 5.57867,4.2291 6.73789,5.19551 2.57621,2.14771 2.58217,2.14789 3.61452,0.10346 z M 57.158408,200.67131 c 0.921144,-0.78687 3.730175,-3.58979 6.242288,-6.22871 5.138253,-5.39764 4.907402,-4.83382 2.947188,-7.19797 -4.5145,-5.44479 -11.071241,-17.01537 -15.185456,-26.79755 -1.036531,-2.46451 -2.004745,-4.52098 -2.151589,-4.56993 -0.743418,-0.2478 -9.889082,23.48615 -9.889082,25.6632 0,0.77311 0.844798,0.93225 6.621245,1.24726 6.926398,0.37772 6.303248,-0.12768 6.14027,4.98002 -0.153051,4.79656 0.04916,6.31074 1.445051,10.82078 1.289712,4.16698 1.351206,4.20042 3.830085,2.0829 z M 174.84751,125.86074 c 4.30257,-10.97014 6.69999,-18.79222 12.71898,-41.498351 1.95216,-7.364341 4.71551,-23.8125 4.00058,-23.8125 -0.13062,0 -0.76722,0.565547 -1.41466,1.256771 -0.64745,0.691224 -1.64601,1.566206 -2.21902,1.944407 -0.57301,0.378201 -2.41106,1.787673 -4.08455,3.132159 -13.97297,11.225932 -18.02658,10.87143 -30.29479,-2.64939 -4.76137,-5.247513 -7.06223,-7.652697 -7.32076,-7.652697 -0.12093,0 -0.223,3.482578 -0.22684,7.739062 -0.006,7.124457 -0.24544,16.202883 -0.67047,25.466146 l -0.16996,3.704167 3.61942,4.365625 c 6.21291,7.493831 11.10704,14.103891 17.14115,23.151041 5.93318,8.89583 6.47187,9.65729 6.83202,9.65729 0.11266,0 1.05267,-2.16168 2.0889,-4.80373 z"
           id="path346" /></g></g></g></svg>
